<?xml version="1.0" standalone="yes"?>

<svg version="1.1" viewBox="0.0 0.0 487.31233595800524 393.8530183727034" fill="none" stroke="none" stroke-linecap="square" stroke-miterlimit="10" xmlns="http://www.w3.org/2000/svg" xmlns:xlink="http://www.w3.org/1999/xlink"><clipPath id="p.0"><path d="m0 0l487.31235 0l0 393.85303l-487.31235 0l0 -393.85303z" clip-rule="nonzero"></path></clipPath><g clip-path="url(#p.0)"><path fill="#000000" fill-opacity="0.0" d="m0 0l487.31235 0l0 393.85303l-487.31235 0z" fill-rule="evenodd"></path><path shape-rendering="crispEdges" fill="#d9d9d9" d="m73.81628 41.31496l126.41732 0l0 41.19685l-126.41732 0l0 -41.19685z" fill-rule="nonzero"></path><path shape-rendering="crispEdges" fill="#d9d9d9" d="m73.81628 82.51181l126.41732 0l0 41.196854l-126.41732 0l0 -41.196854z" fill-rule="nonzero"></path><path shape-rendering="crispEdges" fill="#d9d9d9" d="m73.81628 123.708664l126.41732 0l0 41.196854l-126.41732 0l0 -41.196854z" fill-rule="nonzero"></path><path stroke="#999999" stroke-width="2.0" stroke-linecap="butt" d="m73.81628 40.31496l0 125.59056" fill-rule="nonzero"></path><path stroke="#999999" stroke-width="2.0" stroke-linecap="butt" d="m200.2336 40.31496l0 125.59056" fill-rule="nonzero"></path><path stroke="#999999" stroke-width="2.0" stroke-linecap="butt" d="m72.81628 41.31496l128.41733 0" fill-rule="nonzero"></path><path stroke="#999999" stroke-width="2.0" stroke-linecap="butt" d="m72.81628 82.51181l128.41733 0" fill-rule="nonzero"></path><path stroke="#999999" stroke-width="2.0" stroke-linecap="butt" d="m72.81628 123.708664l128.41733 0" fill-rule="nonzero"></path><path stroke="#999999" stroke-width="2.0" stroke-linecap="butt" d="m72.81628 164.90552l128.41733 0" fill-rule="nonzero"></path><path fill="#999999" d="m126.51033 68.23496l0 -1.25q-0.9375 1.46875 -2.75 1.46875q-1.171875 0 -2.171875 -0.640625q-0.984375 -0.65625 -1.53125 -1.8125q-0.53125 -1.171875 -0.53125 -2.6875038q0 -1.46875 0.484375 -2.671875q0.5 -1.203125 1.46875 -1.84375q0.984375 -0.640625 2.203125 -0.640625q0.890625 0 1.578125 0.375q0.703125 0.375 1.140625 0.984375l0 -4.875l1.65625 0l0 13.593754l-1.546875 0zm-5.28125 -4.921879q0 1.8906288 0.796875 2.8281288q0.8125 0.9375 1.890625 0.9375q1.09375 0 1.859375 -0.890625q0.765625 -0.890625 0.765625 -2.7343788q0 -2.015625 -0.78125 -2.953125q-0.78125 -0.953125 -1.921875 -0.953125q-1.109375 0 -1.859375 0.90625q-0.75 0.90625 -0.75 2.859375zm15.703842 3.7031288q-0.9375 0.796875 -1.796875 1.125q-0.859375 0.3125 -1.84375 0.3125q-1.609375 0 -2.484375 -0.78125q-0.875 -0.796875 -0.875 -2.03125q0 -0.734375 0.328125 -1.328125q0.328125 -0.5937538 0.859375 -0.9531288q0.53125 -0.359375 1.203125 -0.546875q0.5 -0.140625 1.484375 -0.25q2.03125 -0.25 2.984375 -0.578125q0 -0.34375 0 -0.4375q0 -1.015625 -0.46875 -1.4375q-0.640625 -0.5625 -1.90625 -0.5625q-1.171875 0 -1.734375 0.40625q-0.5625 0.40625 -0.828125 1.46875l-1.640625 -0.234375q0.234375 -1.046875 0.734375 -1.6875q0.515625 -0.640625 1.46875 -0.984375q0.96875 -0.359375 2.25 -0.359375q1.265625 0 2.046875 0.296875q0.78125 0.296875 1.15625 0.75q0.375 0.453125 0.515625 1.140625q0.09375 0.421875 0.09375 1.53125l0 2.2343788q0 2.328125 0.09375 2.953125q0.109375 0.609375 0.4375 1.171875l-1.75 0q-0.265625 -0.515625 -0.328125 -1.21875zm-0.140625 -3.7187538q-0.90625 0.359375 -2.734375 0.625q-1.03125 0.14062881 -1.453125 0.3281288q-0.421875 0.1875 -0.65625 0.546875q-0.234375 0.359375 -0.234375 0.796875q0 0.671875 0.5 1.125q0.515625 0.4375 1.484375 0.4375q0.96875 0 1.71875 -0.421875q0.75 -0.4375 1.109375 -1.15625q0.265625 -0.578125 0.265625 -1.6718788l0 -0.609375zm7.735092 3.4375038l0.234375 1.484375q-0.703125 0.140625 -1.265625 0.140625q-0.90625 0 -1.40625 -0.28125q-0.5 -0.296875 -0.703125 -0.75q-0.203125 -0.46875 -0.203125 -1.984375l0 -5.656254l-1.234375 0l0 -1.3125l1.234375 0l0 -2.4375l1.65625 -1.0l0 3.4375l1.6875 0l0 1.3125l-1.6875 0l0 5.750004q0 0.71875 0.078125 0.921875q0.09375 0.203125 0.296875 0.328125q0.203125 0.125 0.578125 0.125q0.265625 0 0.734375 -0.078125zm7.964554 0.28125q-0.9375 0.796875 -1.796875 1.125q-0.859375 0.3125 -1.84375 0.3125q-1.609375 0 -2.484375 -0.78125q-0.875 -0.796875 -0.875 -2.03125q0 -0.734375 0.328125 -1.328125q0.328125 -0.5937538 0.859375 -0.9531288q0.53125 -0.359375 1.203125 -0.546875q0.5 -0.140625 1.484375 -0.25q2.03125 -0.25 2.984375 -0.578125q0 -0.34375 0 -0.4375q0 -1.015625 -0.46875 -1.4375q-0.640625 -0.5625 -1.90625 -0.5625q-1.171875 0 -1.734375 0.40625q-0.5625 0.40625 -0.828125 1.46875l-1.640625 -0.234375q0.234375 -1.046875 0.734375 -1.6875q0.515625 -0.640625 1.46875 -0.984375q0.96875 -0.359375 2.25 -0.359375q1.265625 0 2.046875 0.296875q0.78125 0.296875 1.15625 0.75q0.375 0.453125 0.515625 1.140625q0.09375 0.421875 0.09375 1.53125l0 2.2343788q0 2.328125 0.09375 2.953125q0.109375 0.609375 0.4375 1.171875l-1.75 0q-0.265625 -0.515625 -0.328125 -1.21875zm-0.140625 -3.7187538q-0.90625 0.359375 -2.734375 0.625q-1.03125 0.14062881 -1.453125 0.3281288q-0.421875 0.1875 -0.65625 0.546875q-0.234375 0.359375 -0.234375 0.796875q0 0.671875 0.5 1.125q0.515625 0.4375 1.484375 0.4375q0.96875 0 1.71875 -0.421875q0.75 -0.4375 1.109375 -1.15625q0.265625 -0.578125 0.265625 -1.6718788l0 -0.609375z" fill-rule="nonzero"></path><path fill="#999999" d="m112.828186 109.43181l0 -13.59375l1.671875 0l0 13.59375l-1.671875 0zm10.926071 -3.171875l1.71875 0.21875q-0.40625 1.5 -1.515625 2.34375q-1.09375 0.828125 -2.8125 0.828125q-2.15625 0 -3.421875 -1.328125q-1.265625 -1.328125 -1.265625 -3.734375q0 -2.484375 1.265625 -3.859375q1.28125 -1.375 3.328125 -1.375q1.984375 0 3.234375 1.34375q1.25 1.34375 1.25 3.796875q0 0.140625 -0.015625 0.4375l-7.34375 0q0.09375 1.625 0.921875 2.484375q0.828125 0.859375 2.0625 0.859375q0.90625 0 1.546875 -0.46875q0.65625 -0.484375 1.046875 -1.546875zm-5.484375 -2.703125l5.5 0q-0.109375 -1.234375 -0.625 -1.859375q-0.796875 -0.96875 -2.078125 -0.96875q-1.140625 0 -1.9375 0.78125q-0.78125 0.765625 -0.859375 2.046875zm9.110092 5.875l0 -9.859375l1.5 0l0 1.40625q1.09375 -1.625 3.140625 -1.625q0.890625 0 1.640625 0.328125q0.75 0.3125 1.109375 0.84375q0.375 0.515625 0.53125 1.21875q0.09375 0.46875 0.09375 1.625l0 6.0625l-1.671875 0l0 -6.0q0 -1.015625 -0.203125 -1.515625q-0.1875 -0.515625 -0.6875 -0.8125q-0.5 -0.296875 -1.171875 -0.296875q-1.0625 0 -1.84375 0.671875q-0.765625 0.671875 -0.765625 2.578125l0 5.375l-1.671875 0zm10.078842 0.8125l1.609375 0.25q0.109375 0.75 0.578125 1.09375q0.609375 0.453125 1.6875 0.453125q1.171875 0 1.796875 -0.46875q0.625 -0.453125 0.859375 -1.28125q0.125 -0.515625 0.109375 -2.15625q-1.09375 1.296875 -2.71875 1.296875q-2.03125 0 -3.15625 -1.46875q-1.109375 -1.46875 -1.109375 -3.515625q0 -1.40625 0.515625 -2.59375q0.515625 -1.203125 1.484375 -1.84375q0.96875 -0.65625 2.265625 -0.65625q1.75 0 2.875 1.40625l0 -1.1875l1.546875 0l0 8.515625q0 2.3125 -0.46875 3.265625q-0.46875 0.96875 -1.484375 1.515625q-1.015625 0.5625 -2.5 0.5625q-1.765625 0 -2.859375 -0.796875q-1.078125 -0.796875 -1.03125 -2.390625zm1.375 -5.921875q0 1.953125 0.765625 2.84375q0.78125 0.890625 1.9375 0.890625q1.140625 0 1.921875 -0.890625q0.78125 -0.890625 0.78125 -2.78125q0 -1.8125 -0.8125 -2.71875q-0.796875 -0.921875 -1.921875 -0.921875q-1.109375 0 -1.890625 0.90625q-0.78125 0.890625 -0.78125 2.671875zm12.953842 3.609375l0.234375 1.484375q-0.703125 0.140625 -1.265625 0.140625q-0.90625 0 -1.40625 -0.28125q-0.5 -0.296875 -0.703125 -0.75q-0.203125 -0.46875 -0.203125 -1.984375l0 -5.65625l-1.234375 0l0 -1.3125l1.234375 0l0 -2.4375l1.65625 -1.0l0 3.4375l1.6875 0l0 1.3125l-1.6875 0l0 5.75q0 0.71875 0.078125 0.921875q0.09375 0.203125 0.296875 0.328125q0.203125 0.125 0.578125 0.125q0.265625 0 0.734375 -0.078125zm1.5270538 1.5l0 -13.59375l1.671875 0l0 4.875q1.171875 -1.359375 2.953125 -1.359375q1.09375 0 1.890625 0.4375q0.8125 0.421875 1.15625 1.1875q0.359375 0.765625 0.359375 2.203125l0 6.25l-1.671875 0l0 -6.25q0 -1.25 -0.546875 -1.8125q-0.546875 -0.578125 -1.53125 -0.578125q-0.75 0 -1.40625 0.390625q-0.640625 0.375 -0.921875 1.046875q-0.28125 0.65625 -0.28125 1.8125l0 5.390625l-1.671875 0z" fill-rule="nonzero"></path><path fill="#999999" d="m110.49261 147.01929l1.640625 0.21875q-0.265625 1.6875 -1.375 2.65625q-1.109375 0.953125 -2.734375 0.953125q-2.015625 0 -3.25 -1.3125q-1.21875 -1.328125 -1.21875 -3.796875q0 -1.59375 0.515625 -2.78125q0.53125 -1.203125 1.609375 -1.796875q1.09375 -0.609375 2.359375 -0.609375q1.609375 0 2.625 0.8125q1.015625 0.8125 1.3125 2.3125l-1.625 0.25q-0.234375 -1.0 -0.828125 -1.5q-0.59375 -0.5 -1.421875 -0.5q-1.265625 0 -2.0625 0.90625q-0.78125 0.90625 -0.78125 2.859375q0 1.984375 0.765625 2.890625q0.765625 0.890625 1.984375 0.890625q0.984375 0 1.640625 -0.59375q0.65625 -0.609375 0.84375 -1.859375zm9.328125 2.390625q-0.9375 0.796875 -1.796875 1.125q-0.859375 0.3125 -1.84375 0.3125q-1.609375 0 -2.484375 -0.78125q-0.875 -0.796875 -0.875 -2.03125q0 -0.734375 0.328125 -1.328125q0.328125 -0.59375 0.859375 -0.953125q0.53125 -0.359375 1.203125 -0.546875q0.5 -0.140625 1.484375 -0.25q2.03125 -0.25 2.984375 -0.578125q0 -0.34375 0 -0.4375q0 -1.015625 -0.46875 -1.4375q-0.640625 -0.5625 -1.90625 -0.5625q-1.171875 0 -1.734375 0.40625q-0.5625 0.40625 -0.828125 1.46875l-1.640625 -0.234375q0.234375 -1.046875 0.734375 -1.6875q0.515625 -0.640625 1.46875 -0.984375q0.96875 -0.359375 2.25 -0.359375q1.265625 0 2.046875 0.296875q0.78125 0.296875 1.15625 0.75q0.375 0.453125 0.515625 1.140625q0.09375 0.421875 0.09375 1.53125l0 2.234375q0 2.328125 0.09375 2.953125q0.109375 0.609375 0.4375 1.171875l-1.75 0q-0.265625 -0.515625 -0.328125 -1.21875zm-0.140625 -3.71875q-0.90625 0.359375 -2.734375 0.625q-1.03125 0.140625 -1.453125 0.328125q-0.421875 0.1875 -0.65625 0.546875q-0.234375 0.359375 -0.234375 0.796875q0 0.671875 0.5 1.125q0.515625 0.4375 1.484375 0.4375q0.96875 0 1.71875 -0.421875q0.75 -0.4375 1.109375 -1.15625q0.265625 -0.578125 0.265625 -1.671875l0 -0.609375zm4.078842 8.71875l0 -13.640625l1.53125 0l0 1.28125q0.53125 -0.75 1.203125 -1.125q0.6875 -0.375 1.6406326 -0.375q1.265625 0 2.234375 0.65625q0.96875 0.640625 1.453125 1.828125q0.5 1.1875 0.5 2.59375q0 1.515625 -0.546875 2.734375q-0.546875 1.203125 -1.578125 1.84375q-1.03125 0.640625 -2.171875 0.640625q-0.8437576 0 -1.5156326 -0.34375q-0.65625 -0.359375 -1.078125 -0.890625l0 4.796875l-1.671875 0zm1.515625 -8.65625q0 1.90625 0.765625 2.8125q0.78125 0.90625 1.875 0.90625q1.1093826 0 1.8906326 -0.9375q0.796875 -0.9375 0.796875 -2.921875q0 -1.875 -0.78125 -2.8125q-0.765625 -0.9375 -1.8437576 -0.9375q-1.0625 0 -1.890625 1.0q-0.8125 1.0 -0.8125 2.890625zm15.297585 3.65625q-0.9375 0.796875 -1.796875 1.125q-0.859375 0.3125 -1.8437347 0.3125q-1.609375 0 -2.484375 -0.78125q-0.875 -0.796875 -0.875 -2.03125q0 -0.734375 0.328125 -1.328125q0.328125 -0.59375 0.859375 -0.953125q0.53125 -0.359375 1.203125 -0.546875q0.5 -0.140625 1.484375 -0.25q2.0312347 -0.25 2.9843597 -0.578125q0 -0.34375 0 -0.4375q0 -1.015625 -0.46875 -1.4375q-0.640625 -0.5625 -1.90625 -0.5625q-1.1718597 0 -1.7343597 0.40625q-0.5625 0.40625 -0.828125 1.46875l-1.640625 -0.234375q0.234375 -1.046875 0.734375 -1.6875q0.515625 -0.640625 1.46875 -0.984375q0.96875 -0.359375 2.2499847 -0.359375q1.265625 0 2.046875 0.296875q0.78125 0.296875 1.15625 0.75q0.375 0.453125 0.515625 1.140625q0.09375 0.421875 0.09375 1.53125l0 2.234375q0 2.328125 0.09375 2.953125q0.109375 0.609375 0.4375 1.171875l-1.75 0q-0.265625 -0.515625 -0.328125 -1.21875zm-0.140625 -3.71875q-0.90625 0.359375 -2.7343597 0.625q-1.03125 0.140625 -1.453125 0.328125q-0.421875 0.1875 -0.65625 0.546875q-0.234375 0.359375 -0.234375 0.796875q0 0.671875 0.5 1.125q0.515625 0.4375 1.484375 0.4375q0.96873474 0 1.7187347 -0.421875q0.75 -0.4375 1.109375 -1.15625q0.265625 -0.578125 0.265625 -1.671875l0 -0.609375zm10.516342 1.328125l1.640625 0.21875q-0.265625 1.6875 -1.375 2.65625q-1.109375 0.953125 -2.734375 0.953125q-2.015625 0 -3.25 -1.3125q-1.21875 -1.328125 -1.21875 -3.796875q0 -1.59375 0.515625 -2.78125q0.53125 -1.203125 1.609375 -1.796875q1.09375 -0.609375 2.359375 -0.609375q1.609375 0 2.625 0.8125q1.015625 0.8125 1.3125 2.3125l-1.625 0.25q-0.234375 -1.0 -0.828125 -1.5q-0.59375 -0.5 -1.421875 -0.5q-1.265625 0 -2.0625 0.90625q-0.78125 0.90625 -0.78125 2.859375q0 1.984375 0.765625 2.890625q0.765625 0.890625 1.984375 0.890625q0.984375 0 1.640625 -0.59375q0.65625 -0.609375 0.84375 -1.859375zm2.90625 -8.078125l0 -1.90625l1.671875 0l0 1.90625l-1.671875 0zm0 11.6875l0 -9.859375l1.671875 0l0 9.859375l-1.671875 0zm7.785446 -1.5l0.234375 1.484375q-0.703125 0.140625 -1.265625 0.140625q-0.90625 0 -1.40625 -0.28125q-0.5 -0.296875 -0.703125 -0.75q-0.203125 -0.46875 -0.203125 -1.984375l0 -5.65625l-1.234375 0l0 -1.3125l1.234375 0l0 -2.4375l1.65625 -1.0l0 3.4375l1.6875 0l0 1.3125l-1.6875 0l0 5.75q0 0.71875 0.078125 0.921875q0.09375 0.203125 0.296875 0.328125q0.203125 0.125 0.578125 0.125q0.265625 0 0.734375 -0.078125zm1.4489288 5.296875l-0.171875 -1.5625q0.546875 0.140625 0.953125 0.140625q0.546875 0 0.875 -0.1875q0.34375 -0.1875 0.5625 -0.515625q0.15625 -0.25 0.5 -1.25q0.046875 -0.140625 0.15625 -0.40625l-3.734375 -9.875l1.796875 0l2.046875 5.71875q0.40625 1.078125 0.71875 2.28125q0.28125 -1.15625 0.6875 -2.25l2.09375 -5.75l1.671875 0l-3.75 10.03125q-0.59375 1.625 -0.9375 2.234375q-0.4375 0.828125 -1.015625 1.203125q-0.578125 0.390625 -1.375 0.390625q-0.484375 0 -1.078125 -0.203125z" fill-rule="nonzero"></path><path shape-rendering="crispEdges" fill="#d96307" d="m346.0551 143.40158l126.41733 0l0 41.19684l-126.41733 0l0 -41.19684z" fill-rule="nonzero"></path><path shape-rendering="crispEdges" fill="#d96307" d="m346.0551 184.59842l126.41733 0l0 41.196854l-126.41733 0l0 -41.196854z" fill-rule="nonzero"></path><path stroke="#000000" stroke-width="2.0" stroke-linecap="butt" d="m346.0551 142.40158l0 84.39369" fill-rule="nonzero"></path><path stroke="#000000" stroke-width="2.0" stroke-linecap="butt" d="m472.47244 142.40158l0 84.39369" fill-rule="nonzero"></path><path stroke="#000000" stroke-width="2.0" stroke-linecap="butt" d="m345.0551 143.40158l128.41733 0" fill-rule="nonzero"></path><path stroke="#000000" stroke-width="2.0" stroke-linecap="butt" d="m345.0551 184.59842l128.41733 0" fill-rule="nonzero"></path><path stroke="#000000" stroke-width="2.0" stroke-linecap="butt" d="m345.0551 225.79527l128.41733 0" fill-rule="nonzero"></path><path fill="#000000" d="m386.7705 167.18095l2.609375 0.4375q-0.5 1.4375 -1.59375 2.1875q-1.078125 0.734375 -2.703125 0.734375q-2.5625 0 -3.796875 -1.671875q-0.96875 -1.34375 -0.96875 -3.40625q0 -2.4375 1.265625 -3.828125q1.28125 -1.390625 3.25 -1.390625q2.1875 0 3.453125 1.453125q1.28125 1.453125 1.234375 4.453125l-6.53125 0q0.015625 1.15625 0.625 1.8125q0.609375 0.640625 1.5 0.640625q0.609375 0 1.03125 -0.328125q0.421875 -0.34375 0.625 -1.09375zm0.15625 -2.625q-0.03125 -1.140625 -0.59375 -1.71875q-0.546875 -0.59375 -1.34375 -0.59375q-0.859375 0 -1.40625 0.625q-0.5625 0.609375 -0.546875 1.6875l3.890625 0zm7.2351074 5.765625l-3.96875 -9.859375l2.734375 0l1.84375 5.03125l0.546875 1.6875q0.21875 -0.640625 0.265625 -0.84375q0.125 -0.421875 0.28125 -0.84375l1.875 -5.03125l2.671875 0l-3.90625 9.859375l-2.34375 0zm13.360077 -3.140625l2.609375 0.4375q-0.5 1.4375 -1.59375 2.1875q-1.078125 0.734375 -2.703125 0.734375q-2.5625 0 -3.796875 -1.671875q-0.96875 -1.34375 -0.96875 -3.40625q0 -2.4375 1.265625 -3.828125q1.28125 -1.390625 3.25 -1.390625q2.1875 0 3.453125 1.453125q1.28125 1.453125 1.234375 4.453125l-6.53125 0q0.015625 1.15625 0.625 1.8125q0.609375 0.640625 1.5 0.640625q0.609375 0 1.03125 -0.328125q0.421875 -0.34375 0.625 -1.09375zm0.15625 -2.625q-0.03125 -1.140625 -0.59375 -1.71875q-0.546875 -0.59375 -1.34375 -0.59375q-0.859375 0 -1.40625 0.625q-0.5625 0.609375 -0.546875 1.6875l3.890625 0zm13.485107 5.765625l-2.609375 0l0 -5.03125q0 -1.59375 -0.171875 -2.0625q-0.15625 -0.46875 -0.53125 -0.71875q-0.375 -0.265625 -0.90625 -0.265625q-0.6875 0 -1.234375 0.375q-0.53125 0.359375 -0.734375 0.984375q-0.1875 0.609375 -0.1875 2.25l0 4.46875l-2.609375 0l0 -9.859375l2.421875 0l0 1.453125q1.296875 -1.671875 3.25 -1.671875q0.859375 0 1.578125 0.3125q0.71875 0.3125 1.078125 0.796875q0.359375 0.484375 0.5 1.09375q0.15625 0.609375 0.15625 1.75l0 6.125zm6.9428406 -9.859375l0 2.078125l-1.78125 0l0 3.984375q0 1.203125 0.046875 1.40625q0.0625 0.1875 0.234375 0.328125q0.1875 0.125 0.453125 0.125q0.359375 0 1.046875 -0.25l0.21875 2.015625q-0.90625 0.390625 -2.0625 0.390625q-0.703125 0 -1.265625 -0.234375q-0.5625 -0.234375 -0.828125 -0.609375q-0.265625 -0.375 -0.375 -1.015625q-0.078125 -0.453125 -0.078125 -1.84375l0 -4.296875l-1.203125 0l0 -2.078125l1.203125 0l0 -1.953125l2.609375 -1.515625l0 3.46875l1.78125 0zm7.822052 9.859375l-2.609375 0l0 -9.828125q-1.4375 1.34375 -3.375 1.984375l0 -2.375q1.03125 -0.328125 2.21875 -1.25q1.203125 -0.9375 1.640625 -2.1875l2.125 0l0 13.65625z" fill-rule="nonzero"></path><path fill="#000000" d="m386.7705 208.37779l2.609375 0.4375q-0.5 1.4375 -1.59375 2.1875q-1.078125 0.734375 -2.703125 0.734375q-2.5625 0 -3.796875 -1.671875q-0.96875 -1.34375 -0.96875 -3.40625q0 -2.4375 1.265625 -3.828125q1.28125 -1.390625 3.25 -1.390625q2.1875 0 3.453125 1.453125q1.28125 1.453125 1.234375 4.453125l-6.53125 0q0.015625 1.15625 0.625 1.8125q0.609375 0.640625 1.5 0.640625q0.609375 0 1.03125 -0.328125q0.421875 -0.34375 0.625 -1.09375zm0.15625 -2.625q-0.03125 -1.140625 -0.59375 -1.71875q-0.546875 -0.59375 -1.34375 -0.59375q-0.859375 0 -1.40625 0.625q-0.5625 0.609375 -0.546875 1.6875l3.890625 0zm7.2351074 5.765625l-3.96875 -9.859375l2.734375 0l1.84375 5.03125l0.546875 1.6875q0.21875 -0.640625 0.265625 -0.84375q0.125 -0.421875 0.28125 -0.84375l1.875 -5.03125l2.671875 0l-3.90625 9.859375l-2.34375 0zm13.360077 -3.140625l2.609375 0.4375q-0.5 1.4375 -1.59375 2.1875q-1.078125 0.734375 -2.703125 0.734375q-2.5625 0 -3.796875 -1.671875q-0.96875 -1.34375 -0.96875 -3.40625q0 -2.4375 1.265625 -3.828125q1.28125 -1.390625 3.25 -1.390625q2.1875 0 3.453125 1.453125q1.28125 1.453125 1.234375 4.453125l-6.53125 0q0.015625 1.15625 0.625 1.8125q0.609375 0.640625 1.5 0.640625q0.609375 0 1.03125 -0.328125q0.421875 -0.34375 0.625 -1.09375zm0.15625 -2.625q-0.03125 -1.140625 -0.59375 -1.71875q-0.546875 -0.59375 -1.34375 -0.59375q-0.859375 0 -1.40625 0.625q-0.5625 0.609375 -0.546875 1.6875l3.890625 0zm13.485107 5.765625l-2.609375 0l0 -5.03125q0 -1.59375 -0.171875 -2.0625q-0.15625 -0.46875 -0.53125 -0.71875q-0.375 -0.265625 -0.90625 -0.265625q-0.6875 0 -1.234375 0.375q-0.53125 0.359375 -0.734375 0.984375q-0.1875 0.609375 -0.1875 2.25l0 4.46875l-2.609375 0l0 -9.859375l2.421875 0l0 1.453125q1.296875 -1.671875 3.25 -1.671875q0.859375 0 1.578125 0.3125q0.71875 0.3125 1.078125 0.796875q0.359375 0.484375 0.5 1.09375q0.15625 0.609375 0.15625 1.75l0 6.125zm6.9428406 -9.859375l0 2.078125l-1.78125 0l0 3.984375q0 1.203125 0.046875 1.40625q0.0625 0.1875 0.234375 0.328125q0.1875 0.125 0.453125 0.125q0.359375 0 1.046875 -0.25l0.21875 2.015625q-0.90625 0.390625 -2.0625 0.390625q-0.703125 0 -1.265625 -0.234375q-0.5625 -0.234375 -0.828125 -0.609375q-0.265625 -0.375 -0.375 -1.015625q-0.078125 -0.453125 -0.078125 -1.84375l0 -4.296875l-1.203125 0l0 -2.078125l1.203125 0l0 -1.953125l2.609375 -1.515625l0 3.46875l1.78125 0zm9.947052 7.4375l0 2.421875l-9.140625 0q0.15625 -1.375 0.890625 -2.59375q0.75 -1.234375 2.9375 -3.265625q1.765625 -1.640625 2.15625 -2.234375q0.546875 -0.796875 0.546875 -1.59375q0 -0.875 -0.46875 -1.34375q-0.46875 -0.46875 -1.296875 -0.46875q-0.8125 0 -1.296875 0.5q-0.484375 0.484375 -0.5625 1.625l-2.59375 -0.25q0.234375 -2.15625 1.453125 -3.09375q1.21875 -0.9375 3.0625 -0.9375q2.015625 0 3.15625 1.09375q1.15625 1.078125 1.15625 2.6875q0 0.921875 -0.328125 1.75q-0.328125 0.828125 -1.046875 1.734375q-0.46875 0.609375 -1.703125 1.75q-1.234375 1.125 -1.5625 1.5q-0.328125 0.359375 -0.53125 0.71875l5.171875 0z" fill-rule="nonzero"></path><path fill="#000000" fill-opacity="0.0" d="m346.05118 98.62992l126.4252 0l0 37.6063l-126.4252 0z" fill-rule="evenodd"></path><path fill="#000000" d="m382.2465 125.54992l0 -13.59375l9.84375 0l0 1.59375l-8.046875 0l0 4.171875l7.53125 0l0 1.59375l-7.53125 0l0 4.625l8.359375 0l0 1.609375l-10.15625 0zm14.927948 0l-3.75 -9.859375l1.765625 0l2.125 5.90625q0.34375 0.953125 0.625 1.984375q0.21875 -0.78125 0.625 -1.875l2.1875 -6.015625l1.71875 0l-3.734375 9.859375l-1.5625 0zm13.34375 -3.171875l1.71875 0.21875q-0.40625 1.5 -1.515625 2.34375q-1.09375 0.828125 -2.8125 0.828125q-2.15625 0 -3.421875 -1.328125q-1.265625 -1.328125 -1.265625 -3.734375q0 -2.484375 1.265625 -3.859375q1.28125 -1.375 3.328125 -1.375q1.984375 0 3.234375 1.34375q1.25 1.34375 1.25 3.796875q0 0.140625 -0.015625 0.4375l-7.34375 0q0.09375 1.625 0.921875 2.484375q0.828125 0.859375 2.0625 0.859375q0.90625 0 1.546875 -0.46875q0.65625 -0.484375 1.046875 -1.546875zm-5.484375 -2.703125l5.5 0q-0.109375 -1.234375 -0.625 -1.859375q-0.796875 -0.96875 -2.078125 -0.96875q-1.140625 0 -1.9375 0.78125q-0.78125 0.765625 -0.859375 2.046875zm9.110107 5.875l0 -9.859375l1.5 0l0 1.40625q1.09375 -1.625 3.140625 -1.625q0.890625 0 1.640625 0.328125q0.75 0.3125 1.109375 0.84375q0.375 0.515625 0.53125 1.21875q0.09375 0.46875 0.09375 1.625l0 6.0625l-1.671875 0l0 -6.0q0 -1.015625 -0.203125 -1.515625q-0.1875 -0.515625 -0.6875 -0.8125q-0.5 -0.296875 -1.171875 -0.296875q-1.0625 0 -1.84375 0.671875q-0.765625 0.671875 -0.765625 2.578125l0 5.375l-1.671875 0zm14.031952 -1.5l0.234375 1.484375q-0.703125 0.140625 -1.265625 0.140625q-0.90625 0 -1.40625 -0.28125q-0.5 -0.296875 -0.703125 -0.75q-0.203125 -0.46875 -0.203125 -1.984375l0 -5.65625l-1.234375 0l0 -1.3125l1.234375 0l0 -2.4375l1.65625 -1.0l0 3.4375l1.6875 0l0 1.3125l-1.6875 0l0 5.75q0 0.71875 0.078125 0.921875q0.09375 0.203125 0.296875 0.328125q0.203125 0.125 0.578125 0.125q0.265625 0 0.734375 -0.078125zm0.8551941 -1.4375l1.65625 -0.265625q0.140625 1.0 0.765625 1.53125q0.640625 0.515625 1.78125 0.515625q1.15625 0 1.703125 -0.46875q0.5625 -0.46875 0.5625 -1.09375q0 -0.5625 -0.484375 -0.890625q-0.34375 -0.21875 -1.703125 -0.5625q-1.84375 -0.46875 -2.5625 -0.796875q-0.703125 -0.34375 -1.078125 -0.9375q-0.359375 -0.609375 -0.359375 -1.328125q0 -0.65625 0.296875 -1.21875q0.3125 -0.5625 0.828125 -0.9375q0.390625 -0.28125 1.0625 -0.484375q0.671875 -0.203125 1.4375 -0.203125q1.171875 0 2.046875 0.34375q0.875 0.328125 1.28125 0.90625q0.421875 0.5625 0.578125 1.515625l-1.625 0.21875q-0.109375 -0.75 -0.65625 -1.171875q-0.53125 -0.4375 -1.5 -0.4375q-1.15625 0 -1.640625 0.390625q-0.484375 0.375 -0.484375 0.875q0 0.328125 0.203125 0.59375q0.203125 0.265625 0.640625 0.4375q0.25 0.09375 1.46875 0.4375q1.765625 0.46875 2.46875 0.765625q0.703125 0.296875 1.09375 0.875q0.40625 0.578125 0.40625 1.4375q0 0.828125 -0.484375 1.578125q-0.484375 0.734375 -1.40625 1.140625q-0.921875 0.390625 -2.078125 0.390625q-1.921875 0 -2.9375 -0.796875q-1.0 -0.796875 -1.28125 -2.359375z" fill-rule="nonzero"></path><path shape-rendering="crispEdges" fill="#999999" d="m73.81628 243.58267l126.41732 0l0 41.19687l-126.41732 0l0 -41.19687z" fill-rule="nonzero"></path><path shape-rendering="crispEdges" fill="#999999" d="m73.81628 284.77954l126.41732 0l0 41.19684l-126.41732 0l0 -41.19684z" fill-rule="nonzero"></path><path shape-rendering="crispEdges" fill="#999999" d="m73.81628 325.97638l126.41732 0l0 41.19684l-126.41732 0l0 -41.19684z" fill-rule="nonzero"></path><path stroke="#000000" stroke-width="2.0" stroke-linecap="butt" d="m73.81628 242.58267l0 125.590546" fill-rule="nonzero"></path><path stroke="#000000" stroke-width="2.0" stroke-linecap="butt" d="m200.2336 242.58267l0 125.590546" fill-rule="nonzero"></path><path stroke="#000000" stroke-width="2.0" stroke-linecap="butt" d="m72.81628 243.58267l128.41733 0" fill-rule="nonzero"></path><path stroke="#000000" stroke-width="2.0" stroke-linecap="butt" d="m72.81628 284.77954l128.41733 0" fill-rule="nonzero"></path><path stroke="#000000" stroke-width="2.0" stroke-linecap="butt" d="m72.81628 325.97638l128.41733 0" fill-rule="nonzero"></path><path stroke="#000000" stroke-width="2.0" stroke-linecap="butt" d="m72.81628 367.17322l128.41733 0" fill-rule="nonzero"></path><path fill="#000000" d="m126.51033 270.5027l0 -1.25q-0.9375 1.46875 -2.75 1.46875q-1.171875 0 -2.171875 -0.640625q-0.984375 -0.65625 -1.53125 -1.8125q-0.53125 -1.171875 -0.53125 -2.6875q0 -1.46875 0.484375 -2.671875q0.5 -1.203125 1.46875 -1.84375q0.984375 -0.640625 2.203125 -0.640625q0.890625 0 1.578125 0.375q0.703125 0.375 1.140625 0.984375l0 -4.875l1.65625 0l0 13.59375l-1.546875 0zm-5.28125 -4.921875q0 1.890625 0.796875 2.828125q0.8125 0.9375 1.890625 0.9375q1.09375 0 1.859375 -0.890625q0.765625 -0.890625 0.765625 -2.734375q0 -2.015625 -0.78125 -2.953125q-0.78125 -0.953125 -1.921875 -0.953125q-1.109375 0 -1.859375 0.90625q-0.75 0.90625 -0.75 2.859375zm15.703842 3.703125q-0.9375 0.796875 -1.796875 1.125q-0.859375 0.3125 -1.84375 0.3125q-1.609375 0 -2.484375 -0.78125q-0.875 -0.796875 -0.875 -2.03125q0 -0.734375 0.328125 -1.328125q0.328125 -0.59375 0.859375 -0.953125q0.53125 -0.359375 1.203125 -0.546875q0.5 -0.140625 1.484375 -0.25q2.03125 -0.25 2.984375 -0.578125q0 -0.34375 0 -0.4375q0 -1.015625 -0.46875 -1.4375q-0.640625 -0.5625 -1.90625 -0.5625q-1.171875 0 -1.734375 0.40625q-0.5625 0.40625 -0.828125 1.46875l-1.640625 -0.234375q0.234375 -1.046875 0.734375 -1.6875q0.515625 -0.640625 1.46875 -0.984375q0.96875 -0.359375 2.25 -0.359375q1.265625 0 2.046875 0.296875q0.78125 0.296875 1.15625 0.75q0.375 0.453125 0.515625 1.140625q0.09375 0.421875 0.09375 1.53125l0 2.234375q0 2.328125 0.09375 2.953125q0.109375 0.609375 0.4375 1.171875l-1.75 0q-0.265625 -0.515625 -0.328125 -1.21875zm-0.140625 -3.71875q-0.90625 0.359375 -2.734375 0.625q-1.03125 0.140625 -1.453125 0.328125q-0.421875 0.1875 -0.65625 0.546875q-0.234375 0.359375 -0.234375 0.796875q0 0.671875 0.5 1.125q0.515625 0.4375 1.484375 0.4375q0.96875 0 1.71875 -0.421875q0.75 -0.4375 1.109375 -1.15625q0.265625 -0.578125 0.265625 -1.671875l0 -0.609375zm7.735092 3.4375l0.234375 1.484375q-0.703125 0.140625 -1.265625 0.140625q-0.90625 0 -1.40625 -0.28125q-0.5 -0.296875 -0.703125 -0.75q-0.203125 -0.46875 -0.203125 -1.984375l0 -5.65625l-1.234375 0l0 -1.3125l1.234375 0l0 -2.4375l1.65625 -1.0l0 3.4375l1.6875 0l0 1.3125l-1.6875 0l0 5.75q0 0.71875 0.078125 0.921875q0.09375 0.203125 0.296875 0.328125q0.203125 0.125 0.578125 0.125q0.265625 0 0.734375 -0.078125zm7.964554 0.28125q-0.9375 0.796875 -1.796875 1.125q-0.859375 0.3125 -1.84375 0.3125q-1.609375 0 -2.484375 -0.78125q-0.875 -0.796875 -0.875 -2.03125q0 -0.734375 0.328125 -1.328125q0.328125 -0.59375 0.859375 -0.953125q0.53125 -0.359375 1.203125 -0.546875q0.5 -0.140625 1.484375 -0.25q2.03125 -0.25 2.984375 -0.578125q0 -0.34375 0 -0.4375q0 -1.015625 -0.46875 -1.4375q-0.640625 -0.5625 -1.90625 -0.5625q-1.171875 0 -1.734375 0.40625q-0.5625 0.40625 -0.828125 1.46875l-1.640625 -0.234375q0.234375 -1.046875 0.734375 -1.6875q0.515625 -0.640625 1.46875 -0.984375q0.96875 -0.359375 2.25 -0.359375q1.265625 0 2.046875 0.296875q0.78125 0.296875 1.15625 0.75q0.375 0.453125 0.515625 1.140625q0.09375 0.421875 0.09375 1.53125l0 2.234375q0 2.328125 0.09375 2.953125q0.109375 0.609375 0.4375 1.171875l-1.75 0q-0.265625 -0.515625 -0.328125 -1.21875zm-0.140625 -3.71875q-0.90625 0.359375 -2.734375 0.625q-1.03125 0.140625 -1.453125 0.328125q-0.421875 0.1875 -0.65625 0.546875q-0.234375 0.359375 -0.234375 0.796875q0 0.671875 0.5 1.125q0.515625 0.4375 1.484375 0.4375q0.96875 0 1.71875 -0.421875q0.75 -0.4375 1.109375 -1.15625q0.265625 -0.578125 0.265625 -1.671875l0 -0.609375z" fill-rule="nonzero"></path><path fill="#000000" d="m112.828186 311.69952l0 -13.59375l1.671875 0l0 13.59375l-1.671875 0zm10.926071 -3.171875l1.71875 0.21875q-0.40625 1.5 -1.515625 2.34375q-1.09375 0.828125 -2.8125 0.828125q-2.15625 0 -3.421875 -1.328125q-1.265625 -1.328125 -1.265625 -3.734375q0 -2.484375 1.265625 -3.859375q1.28125 -1.375 3.328125 -1.375q1.984375 0 3.234375 1.34375q1.25 1.34375 1.25 3.796875q0 0.140625 -0.015625 0.4375l-7.34375 0q0.09375 1.625 0.921875 2.484375q0.828125 0.859375 2.0625 0.859375q0.90625 0 1.546875 -0.46875q0.65625 -0.484375 1.046875 -1.546875zm-5.484375 -2.703125l5.5 0q-0.109375 -1.234375 -0.625 -1.859375q-0.796875 -0.96875 -2.078125 -0.96875q-1.140625 0 -1.9375 0.78125q-0.78125 0.765625 -0.859375 2.046875zm9.110092 5.875l0 -9.859375l1.5 0l0 1.40625q1.09375 -1.625 3.140625 -1.625q0.890625 0 1.640625 0.328125q0.75 0.3125 1.109375 0.84375q0.375 0.515625 0.53125 1.21875q0.09375 0.46875 0.09375 1.625l0 6.0625l-1.671875 0l0 -6.0q0 -1.015625 -0.203125 -1.515625q-0.1875 -0.515625 -0.6875 -0.8125q-0.5 -0.296875 -1.171875 -0.296875q-1.0625 0 -1.84375 0.671875q-0.765625 0.671875 -0.765625 2.578125l0 5.375l-1.671875 0zm10.078842 0.8125l1.609375 0.25q0.109375 0.75 0.578125 1.09375q0.609375 0.453125 1.6875 0.453125q1.171875 0 1.796875 -0.46875q0.625 -0.453125 0.859375 -1.28125q0.125 -0.515625 0.109375 -2.15625q-1.09375 1.296875 -2.71875 1.296875q-2.03125 0 -3.15625 -1.46875q-1.109375 -1.46875 -1.109375 -3.515625q0 -1.40625 0.515625 -2.59375q0.515625 -1.203125 1.484375 -1.84375q0.96875 -0.65625 2.265625 -0.65625q1.75 0 2.875 1.40625l0 -1.1875l1.546875 0l0 8.515625q0 2.3125 -0.46875 3.265625q-0.46875 0.96875 -1.484375 1.515625q-1.015625 0.5625 -2.5 0.5625q-1.765625 0 -2.859375 -0.796875q-1.078125 -0.796875 -1.03125 -2.390625zm1.375 -5.921875q0 1.953125 0.765625 2.84375q0.78125 0.890625 1.9375 0.890625q1.140625 0 1.921875 -0.890625q0.78125 -0.890625 0.78125 -2.78125q0 -1.8125 -0.8125 -2.71875q-0.796875 -0.921875 -1.921875 -0.921875q-1.109375 0 -1.890625 0.90625q-0.78125 0.890625 -0.78125 2.671875zm12.953842 3.609375l0.234375 1.484375q-0.703125 0.140625 -1.265625 0.140625q-0.90625 0 -1.40625 -0.28125q-0.5 -0.296875 -0.703125 -0.75q-0.203125 -0.46875 -0.203125 -1.984375l0 -5.65625l-1.234375 0l0 -1.3125l1.234375 0l0 -2.4375l1.65625 -1.0l0 3.4375l1.6875 0l0 1.3125l-1.6875 0l0 5.75q0 0.71875 0.078125 0.921875q0.09375 0.203125 0.296875 0.328125q0.203125 0.125 0.578125 0.125q0.265625 0 0.734375 -0.078125zm1.5270538 1.5l0 -13.59375l1.671875 0l0 4.875q1.171875 -1.359375 2.953125 -1.359375q1.09375 0 1.890625 0.4375q0.8125 0.421875 1.15625 1.1875q0.359375 0.765625 0.359375 2.203125l0 6.25l-1.671875 0l0 -6.25q0 -1.25 -0.546875 -1.8125q-0.546875 -0.578125 -1.53125 -0.578125q-0.75 0 -1.40625 0.390625q-0.640625 0.375 -0.921875 1.046875q-0.28125 0.65625 -0.28125 1.8125l0 5.390625l-1.671875 0z" fill-rule="nonzero"></path><path fill="#000000" d="m110.49261 349.287l1.640625 0.21875q-0.265625 1.6875 -1.375 2.65625q-1.109375 0.953125 -2.734375 0.953125q-2.015625 0 -3.25 -1.3125q-1.21875 -1.328125 -1.21875 -3.796875q0 -1.59375 0.515625 -2.78125q0.53125 -1.203125 1.609375 -1.796875q1.09375 -0.609375 2.359375 -0.609375q1.609375 0 2.625 0.8125q1.015625 0.8125 1.3125 2.3125l-1.625 0.25q-0.234375 -1.0 -0.828125 -1.5q-0.59375 -0.5 -1.421875 -0.5q-1.265625 0 -2.0625 0.90625q-0.78125 0.90625 -0.78125 2.859375q0 1.984375 0.765625 2.890625q0.765625 0.890625 1.984375 0.890625q0.984375 0 1.640625 -0.59375q0.65625 -0.609375 0.84375 -1.859375zm9.328125 2.390625q-0.9375 0.796875 -1.796875 1.125q-0.859375 0.3125 -1.84375 0.3125q-1.609375 0 -2.484375 -0.78125q-0.875 -0.796875 -0.875 -2.03125q0 -0.734375 0.328125 -1.328125q0.328125 -0.59375 0.859375 -0.953125q0.53125 -0.359375 1.203125 -0.546875q0.5 -0.140625 1.484375 -0.25q2.03125 -0.25 2.984375 -0.578125q0 -0.34375 0 -0.4375q0 -1.015625 -0.46875 -1.4375q-0.640625 -0.5625 -1.90625 -0.5625q-1.171875 0 -1.734375 0.40625q-0.5625 0.40625 -0.828125 1.46875l-1.640625 -0.234375q0.234375 -1.046875 0.734375 -1.6875q0.515625 -0.640625 1.46875 -0.984375q0.96875 -0.359375 2.25 -0.359375q1.265625 0 2.046875 0.296875q0.78125 0.296875 1.15625 0.75q0.375 0.453125 0.515625 1.140625q0.09375 0.421875 0.09375 1.53125l0 2.234375q0 2.328125 0.09375 2.953125q0.109375 0.609375 0.4375 1.171875l-1.75 0q-0.265625 -0.515625 -0.328125 -1.21875zm-0.140625 -3.71875q-0.90625 0.359375 -2.734375 0.625q-1.03125 0.140625 -1.453125 0.328125q-0.421875 0.1875 -0.65625 0.546875q-0.234375 0.359375 -0.234375 0.796875q0 0.671875 0.5 1.125q0.515625 0.4375 1.484375 0.4375q0.96875 0 1.71875 -0.421875q0.75 -0.4375 1.109375 -1.15625q0.265625 -0.578125 0.265625 -1.671875l0 -0.609375zm4.078842 8.71875l0 -13.640625l1.53125 0l0 1.28125q0.53125 -0.75 1.203125 -1.125q0.6875 -0.375 1.6406326 -0.375q1.265625 0 2.234375 0.65625q0.96875 0.640625 1.453125 1.828125q0.5 1.1875 0.5 2.59375q0 1.515625 -0.546875 2.734375q-0.546875 1.203125 -1.578125 1.84375q-1.03125 0.640625 -2.171875 0.640625q-0.8437576 0 -1.5156326 -0.34375q-0.65625 -0.359375 -1.078125 -0.890625l0 4.796875l-1.671875 0zm1.515625 -8.65625q0 1.90625 0.765625 2.8125q0.78125 0.90625 1.875 0.90625q1.1093826 0 1.8906326 -0.9375q0.796875 -0.9375 0.796875 -2.921875q0 -1.875 -0.78125 -2.8125q-0.765625 -0.9375 -1.8437576 -0.9375q-1.0625 0 -1.890625 1.0q-0.8125 1.0 -0.8125 2.890625zm15.297585 3.65625q-0.9375 0.796875 -1.796875 1.125q-0.859375 0.3125 -1.8437347 0.3125q-1.609375 0 -2.484375 -0.78125q-0.875 -0.796875 -0.875 -2.03125q0 -0.734375 0.328125 -1.328125q0.328125 -0.59375 0.859375 -0.953125q0.53125 -0.359375 1.203125 -0.546875q0.5 -0.140625 1.484375 -0.25q2.0312347 -0.25 2.9843597 -0.578125q0 -0.34375 0 -0.4375q0 -1.015625 -0.46875 -1.4375q-0.640625 -0.5625 -1.90625 -0.5625q-1.1718597 0 -1.7343597 0.40625q-0.5625 0.40625 -0.828125 1.46875l-1.640625 -0.234375q0.234375 -1.046875 0.734375 -1.6875q0.515625 -0.640625 1.46875 -0.984375q0.96875 -0.359375 2.2499847 -0.359375q1.265625 0 2.046875 0.296875q0.78125 0.296875 1.15625 0.75q0.375 0.453125 0.515625 1.140625q0.09375 0.421875 0.09375 1.53125l0 2.234375q0 2.328125 0.09375 2.953125q0.109375 0.609375 0.4375 1.171875l-1.75 0q-0.265625 -0.515625 -0.328125 -1.21875zm-0.140625 -3.71875q-0.90625 0.359375 -2.7343597 0.625q-1.03125 0.140625 -1.453125 0.328125q-0.421875 0.1875 -0.65625 0.546875q-0.234375 0.359375 -0.234375 0.796875q0 0.671875 0.5 1.125q0.515625 0.4375 1.484375 0.4375q0.96873474 0 1.7187347 -0.421875q0.75 -0.4375 1.109375 -1.15625q0.265625 -0.578125 0.265625 -1.671875l0 -0.609375zm10.516342 1.328125l1.640625 0.21875q-0.265625 1.6875 -1.375 2.65625q-1.109375 0.953125 -2.734375 0.953125q-2.015625 0 -3.25 -1.3125q-1.21875 -1.328125 -1.21875 -3.796875q0 -1.59375 0.515625 -2.78125q0.53125 -1.203125 1.609375 -1.796875q1.09375 -0.609375 2.359375 -0.609375q1.609375 0 2.625 0.8125q1.015625 0.8125 1.3125 2.3125l-1.625 0.25q-0.234375 -1.0 -0.828125 -1.5q-0.59375 -0.5 -1.421875 -0.5q-1.265625 0 -2.0625 0.90625q-0.78125 0.90625 -0.78125 2.859375q0 1.984375 0.765625 2.890625q0.765625 0.890625 1.984375 0.890625q0.984375 0 1.640625 -0.59375q0.65625 -0.609375 0.84375 -1.859375zm2.90625 -8.078125l0 -1.90625l1.671875 0l0 1.90625l-1.671875 0zm0 11.6875l0 -9.859375l1.671875 0l0 9.859375l-1.671875 0zm7.785446 -1.5l0.234375 1.484375q-0.703125 0.140625 -1.265625 0.140625q-0.90625 0 -1.40625 -0.28125q-0.5 -0.296875 -0.703125 -0.75q-0.203125 -0.46875 -0.203125 -1.984375l0 -5.65625l-1.234375 0l0 -1.3125l1.234375 0l0 -2.4375l1.65625 -1.0l0 3.4375l1.6875 0l0 1.3125l-1.6875 0l0 5.75q0 0.71875 0.078125 0.921875q0.09375 0.203125 0.296875 0.328125q0.203125 0.125 0.578125 0.125q0.265625 0 0.734375 -0.078125zm1.4489288 5.296875l-0.171875 -1.5625q0.546875 0.140625 0.953125 0.140625q0.546875 0 0.875 -0.1875q0.34375 -0.1875 0.5625 -0.515625q0.15625 -0.25 0.5 -1.25q0.046875 -0.140625 0.15625 -0.40625l-3.734375 -9.875l1.796875 0l2.046875 5.71875q0.40625 1.078125 0.71875 2.28125q0.28125 -1.15625 0.6875 -2.25l2.09375 -5.75l1.671875 0l-3.75 10.03125q-0.59375 1.625 -0.9375 2.234375q-0.4375 0.828125 -1.015625 1.203125q-0.578125 0.390625 -1.375 0.390625q-0.484375 0 -1.078125 -0.203125z" fill-rule="nonzero"></path><path fill="#000000" fill-opacity="0.0" d="m0.0013 207.9029l274.04724 0l0 25.952744l-274.04724 0z" fill-rule="evenodd"></path><path fill="#000000" d="m14.985675 232.18477q-0.421875 0.109375 -0.90625 0.171875q-0.484375 0.078125 -0.875 0.078125q-1.328125 0 -2.03125 -0.71875q-0.6875 -0.71875 -0.6875 -2.3125l0 -4.640625l-1.0 0l0 -1.234375l1.0 0l0 -2.5l1.46875 0l0 2.5l3.03125 0l0 1.234375l-3.03125 0l0 3.984375q0 0.6875 0.03125 1.078125q0.03125 0.375 0.21875 0.71875q0.171875 0.3125 0.46875 0.453125q0.296875 0.140625 0.921875 0.140625q0.359375 0 0.75 -0.09375q0.390625 -0.109375 0.5625 -0.1875l0.078125 0l0 1.328125zm7.2109385 -7.046875l-0.078125 0q-0.328125 -0.078125 -0.640625 -0.109375q-0.296875 -0.046875 -0.71875 -0.046875q-0.6875 0 -1.328125 0.3125q-0.625 0.296875 -1.203125 0.765625l0 6.203125l-1.46875 0l0 -8.734375l1.46875 0l0 1.296875q0.875 -0.703125 1.53125 -1.0q0.671875 -0.296875 1.375 -0.296875q0.375 0 0.546875 0.03125q0.171875 0.015625 0.515625 0.0625l0 1.515625zm8.171875 7.125l-1.46875 0l0 -0.9375q-0.1875 0.140625 -0.53125 0.375q-0.328125 0.234375 -0.640625 0.375q-0.359375 0.1875 -0.84375 0.3125q-0.46875 0.125 -1.109375 0.125q-1.1875 0 -2.015625 -0.78125q-0.8125 -0.796875 -0.8125 -2.0q0 -1.0 0.421875 -1.609375q0.4375 -0.609375 1.21875 -0.96875q0.796875 -0.34375 1.90625 -0.46875q1.125 -0.125 2.40625 -0.1875l0 -0.234375q0 -0.5 -0.171875 -0.828125q-0.171875 -0.328125 -0.5 -0.515625q-0.3125 -0.171875 -0.75 -0.234375q-0.4375 -0.0625 -0.921875 -0.0625q-0.578125 0 -1.296875 0.15625q-0.703125 0.140625 -1.453125 0.4375l-0.078125 0l0 -1.5q0.421875 -0.109375 1.234375 -0.25q0.8125 -0.140625 1.609375 -0.140625q0.921875 0 1.59375 0.15625q0.6875 0.140625 1.1875 0.515625q0.5 0.359375 0.75 0.9375q0.265625 0.5625 0.265625 1.40625l0 5.921875zm-1.46875 -2.15625l0 -2.421875q-0.671875 0.03125 -1.578125 0.109375q-0.90625 0.078125 -1.4375 0.234375q-0.640625 0.171875 -1.03125 0.5625q-0.390625 0.375 -0.390625 1.03125q0 0.75 0.453125 1.140625q0.453125 0.375 1.390625 0.375q0.765625 0 1.40625 -0.296875q0.640625 -0.3125 1.1875 -0.734375zm11.59375 2.15625l-1.46875 0l0 -4.96875q0 -0.609375 -0.078125 -1.125q-0.0625 -0.53125 -0.25 -0.828125q-0.203125 -0.328125 -0.578125 -0.484375q-0.359375 -0.171875 -0.9375 -0.171875q-0.609375 0 -1.265625 0.296875q-0.65625 0.296875 -1.25 0.765625l0 6.515625l-1.46875 0l0 -8.734375l1.46875 0l0 0.96875q0.6875 -0.5625 1.421875 -0.875q0.734375 -0.328125 1.5 -0.328125q1.421875 0 2.15625 0.859375q0.75 0.84375 0.75 2.4375l0 5.671875zm9.0625 -2.515625q0 1.1875 -1.0 1.96875q-0.984375 0.765625 -2.6875 0.765625q-0.96875 0 -1.78125 -0.234375q-0.8125 -0.234375 -1.359375 -0.515625l0 -1.640625l0.078125 0q0.703125 0.515625 1.546875 0.828125q0.859375 0.3125 1.640625 0.3125q0.96875 0 1.515625 -0.3125q0.546875 -0.3125 0.546875 -0.984375q0 -0.515625 -0.296875 -0.78125q-0.296875 -0.265625 -1.140625 -0.453125q-0.3125 -0.078125 -0.828125 -0.171875q-0.5 -0.09375 -0.90625 -0.203125q-1.15625 -0.296875 -1.640625 -0.890625q-0.46875 -0.59375 -0.46875 -1.453125q0 -0.53125 0.21875 -1.0q0.21875 -0.484375 0.671875 -0.859375q0.4375 -0.375 1.109375 -0.578125q0.6875 -0.21875 1.515625 -0.21875q0.78125 0 1.578125 0.1875q0.8125 0.1875 1.34375 0.46875l0 1.5625l-0.078125 0q-0.5625 -0.40625 -1.375 -0.6875q-0.796875 -0.296875 -1.578125 -0.296875q-0.796875 0 -1.359375 0.3125q-0.546875 0.3125 -0.546875 0.921875q0 0.53125 0.328125 0.8125q0.328125 0.265625 1.0625 0.4375q0.40625 0.09375 0.90625 0.1875q0.515625 0.09375 0.84375 0.171875q1.03125 0.234375 1.578125 0.8125q0.5625 0.578125 0.5625 1.53125zm6.7890625 -8.21875l-0.078125 0q-0.234375 -0.078125 -0.625 -0.140625q-0.390625 -0.078125 -0.6875 -0.078125q-0.953125 0 -1.375 0.421875q-0.421875 0.40625 -0.421875 1.5l0 0.296875l2.640625 0l0 1.234375l-2.59375 0l0 7.5l-1.46875 0l0 -7.5l-1.0 0l0 -1.234375l1.0 0l0 -0.28125q0 -1.5625 0.765625 -2.390625q0.78125 -0.828125 2.234375 -0.828125q0.5 0 0.890625 0.046875q0.390625 0.046875 0.71875 0.109375l0 1.34375zm8.374996 6.375q0 2.125 -1.0937462 3.375q-1.09375 1.234375 -2.9375 1.234375q-1.84375 0 -2.9375 -1.234375q-1.09375 -1.25 -1.09375 -3.375q0 -2.140625 1.09375 -3.375q1.09375 -1.234375 2.9375 -1.234375q1.84375 0 2.9375 1.234375q1.0937462 1.234375 1.0937462 3.375zm-1.5156212 0q0 -1.703125 -0.671875 -2.515625q-0.65625 -0.828125 -1.84375 -0.828125q-1.1875 0 -1.859375 0.828125q-0.65625 0.8125 -0.65625 2.515625q0 1.640625 0.65625 2.484375q0.671875 0.84375 1.859375 0.84375q1.171875 0 1.84375 -0.828125q0.671875 -0.84375 0.671875 -2.5zm9.226559 -2.765625l-0.078125 0q-0.328125 -0.078125 -0.640625 -0.109375q-0.296875 -0.046875 -0.71875 -0.046875q-0.6875 0 -1.328125 0.3125q-0.625 0.296875 -1.203125 0.765625l0 6.203125l-1.46875 0l0 -8.734375l1.46875 0l0 1.296875q0.875 -0.703125 1.53125 -1.0q0.671875 -0.296875 1.375 -0.296875q0.375 0 0.546875 0.03125q0.171875 0.015625 0.515625 0.0625l0 1.515625zm14.125 7.125l-1.46875 0l0 -4.96875q0 -0.5625 -0.0625 -1.078125q-0.046875 -0.53125 -0.203125 -0.84375q-0.1875 -0.34375 -0.53125 -0.515625q-0.328125 -0.171875 -0.953125 -0.171875q-0.625 0 -1.25 0.3125q-0.609375 0.3125 -1.21875 0.78125q0.015625 0.1875 0.03125 0.421875q0.015625 0.234375 0.015625 0.46875l0 5.59375l-1.46875 0l0 -4.96875q0 -0.578125 -0.046875 -1.09375q-0.046875 -0.53125 -0.21875 -0.84375q-0.171875 -0.328125 -0.515625 -0.5q-0.328125 -0.171875 -0.96875 -0.171875q-0.59375 0 -1.203125 0.296875q-0.609375 0.296875 -1.203125 0.765625l0 6.515625l-1.46875 0l0 -8.734375l1.46875 0l0 0.96875q0.6875 -0.5625 1.359375 -0.875q0.6875 -0.328125 1.46875 -0.328125q0.890625 0 1.5 0.375q0.625 0.375 0.9375 1.03125q0.890625 -0.75 1.625 -1.078125q0.734375 -0.328125 1.5625 -0.328125q1.4375 0 2.125 0.875q0.6875 0.859375 0.6875 2.421875l0 5.671875zm11.578125 2.34375l-10.234375 0l0 -0.9375l10.234375 0l0 0.9375zm8.71875 -6.5625l-6.421875 0q0 0.8125 0.234375 1.40625q0.25 0.59375 0.671875 0.984375q0.40625 0.375 0.953125 0.5625q0.5625 0.1875 1.234375 0.1875q0.890625 0 1.796875 -0.359375q0.90625 -0.359375 1.28125 -0.703125l0.078125 0l0 1.609375q-0.734375 0.3125 -1.515625 0.53125q-0.765625 0.203125 -1.625 0.203125q-2.171875 0 -3.390625 -1.171875q-1.21875 -1.1875 -1.21875 -3.34375q0 -2.140625 1.171875 -3.390625q1.171875 -1.265625 3.078125 -1.265625q1.765625 0 2.71875 1.03125q0.953125 1.03125 0.953125 2.921875l0 0.796875zm-1.421875 -1.125q-0.015625 -1.15625 -0.59375 -1.78125q-0.5625 -0.640625 -1.734375 -0.640625q-1.1875 0 -1.890625 0.703125q-0.6875 0.6875 -0.78125 1.71875l5.0 0zm11.203125 -3.390625l-3.53125 8.734375l-1.484375 0l-3.5 -8.734375l1.59375 0l2.703125 6.953125l2.671875 -6.953125l1.546875 0zm9.21875 4.515625l-6.421875 0q0 0.8125 0.234375 1.40625q0.25 0.59375 0.671875 0.984375q0.40625 0.375 0.953125 0.5625q0.5625 0.1875 1.234375 0.1875q0.890625 0 1.796875 -0.359375q0.90625 -0.359375 1.28125 -0.703125l0.078125 0l0 1.609375q-0.734375 0.3125 -1.515625 0.53125q-0.765625 0.203125 -1.625 0.203125q-2.171875 0 -3.390625 -1.171875q-1.21875 -1.1875 -1.21875 -3.34375q0 -2.140625 1.171875 -3.390625q1.171875 -1.265625 3.078125 -1.265625q1.765625 0 2.71875 1.03125q0.953125 1.03125 0.953125 2.921875l0 0.796875zm-1.421875 -1.125q-0.015625 -1.15625 -0.59375 -1.78125q-0.5625 -0.640625 -1.734375 -0.640625q-1.1875 0 -1.890625 0.703125q-0.6875 0.6875 -0.78125 1.71875l5.0 0zm10.953125 5.34375l-1.46875 0l0 -4.96875q0 -0.609375 -0.078125 -1.125q-0.0625 -0.53125 -0.25 -0.828125q-0.203125 -0.328125 -0.578125 -0.484375q-0.359375 -0.171875 -0.9375 -0.171875q-0.609375 0 -1.265625 0.296875q-0.65625 0.296875 -1.25 0.765625l0 6.515625l-1.46875 0l0 -8.734375l1.46875 0l0 0.96875q0.6875 -0.5625 1.421875 -0.875q0.734375 -0.328125 1.5 -0.328125q1.421875 0 2.15625 0.859375q0.75 0.84375 0.75 2.4375l0 5.671875zm7.359375 -0.078125q-0.421875 0.109375 -0.90625 0.171875q-0.484375 0.078125 -0.875 0.078125q-1.328125 0 -2.03125 -0.71875q-0.6875 -0.71875 -0.6875 -2.3125l0 -4.640625l-1.0 0l0 -1.234375l1.0 0l0 -2.5l1.46875 0l0 2.5l3.03125 0l0 1.234375l-3.03125 0l0 3.984375q0 0.6875 0.03125 1.078125q0.03125 0.375 0.21875 0.71875q0.171875 0.3125 0.46875 0.453125q0.296875 0.140625 0.921875 0.140625q0.359375 0 0.75 -0.09375q0.390625 -0.109375 0.5625 -0.1875l0.078125 0l0 1.328125zm8.0078125 -2.4375q0 1.1875 -1.0 1.96875q-0.984375 0.765625 -2.6875 0.765625q-0.96875 0 -1.78125 -0.234375q-0.8125 -0.234375 -1.359375 -0.515625l0 -1.640625l0.078125 0q0.703125 0.515625 1.546875 0.828125q0.859375 0.3125 1.640625 0.3125q0.96875 0 1.515625 -0.3125q0.546875 -0.3125 0.546875 -0.984375q0 -0.515625 -0.296875 -0.78125q-0.296875 -0.265625 -1.140625 -0.453125q-0.3125 -0.078125 -0.828125 -0.171875q-0.5 -0.09375 -0.90625 -0.203125q-1.15625 -0.296875 -1.640625 -0.890625q-0.46875 -0.59375 -0.46875 -1.453125q0 -0.53125 0.21875 -1.0q0.21875 -0.484375 0.671875 -0.859375q0.4375 -0.375 1.109375 -0.578125q0.6875 -0.21875 1.515625 -0.21875q0.78125 0 1.578125 0.1875q0.8125 0.1875 1.34375 0.46875l0 1.5625l-0.078125 0q-0.5625 -0.40625 -1.375 -0.6875q-0.796875 -0.296875 -1.578125 -0.296875q-0.796875 0 -1.359375 0.3125q-0.546875 0.3125 -0.546875 0.921875q0 0.53125 0.328125 0.8125q0.328125 0.265625 1.0625 0.4375q0.40625 0.09375 0.90625 0.1875q0.515625 0.09375 0.84375 0.171875q1.03125 0.234375 1.578125 0.8125q0.5625 0.578125 0.5625 1.53125zm6.7734375 5.734375l-1.796875 0q-1.375 -1.578125 -2.140625 -3.453125q-0.765625 -1.890625 -0.765625 -4.234375q0 -2.359375 0.765625 -4.234375q0.765625 -1.875 2.140625 -3.453125l1.796875 0l0 0.078125q-0.640625 0.5625 -1.21875 1.3125q-0.5625 0.75 -1.0625 1.734375q-0.46875 0.96875 -0.765625 2.125q-0.28125 1.15625 -0.28125 2.4375q0 1.328125 0.28125 2.4375q0.28125 1.109375 0.765625 2.125q0.46875 0.953125 1.0625 1.734375q0.609375 0.78125 1.21875 1.3125l0 0.078125zm9.890625 -7.4375l-6.421875 0q0 0.8125 0.234375 1.40625q0.25 0.59375 0.671875 0.984375q0.40625 0.375 0.953125 0.5625q0.5625 0.1875 1.234375 0.1875q0.890625 0 1.796875 -0.359375q0.90625 -0.359375 1.28125 -0.703125l0.078125 0l0 1.609375q-0.734375 0.3125 -1.515625 0.53125q-0.765625 0.203125 -1.625 0.203125q-2.171875 0 -3.390625 -1.171875q-1.21875 -1.1875 -1.21875 -3.34375q0 -2.140625 1.171875 -3.390625q1.171875 -1.265625 3.078125 -1.265625q1.765625 0 2.71875 1.03125q0.953125 1.03125 0.953125 2.921875l0 0.796875zm-1.421875 -1.125q-0.015625 -1.15625 -0.59375 -1.78125q-0.5625 -0.640625 -1.734375 -0.640625q-1.1875 0 -1.890625 0.703125q-0.6875 0.6875 -0.78125 1.71875l5.0 0zm11.203125 -3.390625l-3.53125 8.734375l-1.484375 0l-3.5 -8.734375l1.59375 0l2.703125 6.953125l2.671875 -6.953125l1.546875 0zm9.21875 4.515625l-6.421875 0q0 0.8125 0.234375 1.40625q0.25 0.59375 0.671875 0.984375q0.40625 0.375 0.953125 0.5625q0.5625 0.1875 1.234375 0.1875q0.890625 0 1.796875 -0.359375q0.90625 -0.359375 1.28125 -0.703125l0.078125 0l0 1.609375q-0.734375 0.3125 -1.515625 0.53125q-0.765625 0.203125 -1.625 0.203125q-2.171875 0 -3.390625 -1.171875q-1.21875 -1.1875 -1.21875 -3.34375q0 -2.140625 1.171875 -3.390625q1.171875 -1.265625 3.078125 -1.265625q1.765625 0 2.71875 1.03125q0.953125 1.03125 0.953125 2.921875l0 0.796875zm-1.421875 -1.125q-0.015625 -1.15625 -0.59375 -1.78125q-0.5625 -0.640625 -1.734375 -0.640625q-1.1875 0 -1.890625 0.703125q-0.6875 0.6875 -0.78125 1.71875l5.0 0zm10.953125 5.34375l-1.46875 0l0 -4.96875q0 -0.609375 -0.078125 -1.125q-0.0625 -0.53125 -0.25 -0.828125q-0.203125 -0.328125 -0.578125 -0.484375q-0.359375 -0.171875 -0.9375 -0.171875q-0.609375 0 -1.265625 0.296875q-0.65625 0.296875 -1.25 0.765625l0 6.515625l-1.46875 0l0 -8.734375l1.46875 0l0 0.96875q0.6875 -0.5625 1.421875 -0.875q0.734375 -0.328125 1.5 -0.328125q1.421875 0 2.15625 0.859375q0.75 0.84375 0.75 2.4375l0 5.671875zm7.359375 -0.078125q-0.421875 0.109375 -0.90625 0.171875q-0.484375 0.078125 -0.875 0.078125q-1.328125 0 -2.03125 -0.71875q-0.6875 -0.71875 -0.6875 -2.3125l0 -4.640625l-1.0 0l0 -1.234375l1.0 0l0 -2.5l1.46875 0l0 2.5l3.03125 0l0 1.234375l-3.03125 0l0 3.984375q0 0.6875 0.03125 1.078125q0.03125 0.375 0.21875 0.71875q0.171875 0.3125 0.46875 0.453125q0.296875 0.140625 0.921875 0.140625q0.359375 0 0.75 -0.09375q0.390625 -0.109375 0.5625 -0.1875l0.078125 0l0 1.328125zm8.0078125 -2.4375q0 1.1875 -1.0 1.96875q-0.984375 0.765625 -2.6875 0.765625q-0.96875 0 -1.78125 -0.234375q-0.8125 -0.234375 -1.359375 -0.515625l0 -1.640625l0.078125 0q0.703125 0.515625 1.546875 0.828125q0.859375 0.3125 1.640625 0.3125q0.96875 0 1.515625 -0.3125q0.546875 -0.3125 0.546875 -0.984375q0 -0.515625 -0.296875 -0.78125q-0.296875 -0.265625 -1.140625 -0.453125q-0.3125 -0.078125 -0.828125 -0.171875q-0.5 -0.09375 -0.90625 -0.203125q-1.15625 -0.296875 -1.640625 -0.890625q-0.46875 -0.59375 -0.46875 -1.453125q0 -0.53125 0.21875 -1.0q0.21875 -0.484375 0.671875 -0.859375q0.4375 -0.375 1.109375 -0.578125q0.6875 -0.21875 1.515625 -0.21875q0.78125 0 1.578125 0.1875q0.8125 0.1875 1.34375 0.46875l0 1.5625l-0.078125 0q-0.5625 -0.40625 -1.375 -0.6875q-0.796875 -0.296875 -1.578125 -0.296875q-0.796875 0 -1.359375 0.3125q-0.546875 0.3125 -0.546875 0.921875q0 0.53125 0.328125 0.8125q0.328125 0.265625 1.0625 0.4375q0.40625 0.09375 0.90625 0.1875q0.515625 0.09375 0.84375 0.171875q1.03125 0.234375 1.578125 0.8125q0.5625 0.578125 0.5625 1.53125zm5.2265625 -3.984375l-1.875 0l0 -2.234375l1.875 0l0 2.234375zm0 6.5l-1.875 0l0 -2.234375l1.875 0l0 2.234375z" fill-rule="nonzero"></path><path fill="#d96307" d="m235.58723 220.62227l-4.234375 11.640625l-2.0625 0l-4.234375 -11.640625l1.65625 0l3.65625 10.234375l3.640625 -10.234375l1.578125 0zm8.953125 7.421875l-6.421875 0q0 0.8125 0.234375 1.40625q0.25 0.59375 0.671875 0.984375q0.40625 0.375 0.953125 0.5625q0.5625 0.1875 1.234375 0.1875q0.890625 0 1.796875 -0.359375q0.90625 -0.359375 1.28125 -0.703125l0.078125 0l0 1.609375q-0.734375 0.3125 -1.515625 0.53125q-0.765625 0.203125 -1.625 0.203125q-2.171875 0 -3.390625 -1.171875q-1.21875 -1.1875 -1.21875 -3.34375q0 -2.140625 1.171875 -3.390625q1.171875 -1.265625 3.078125 -1.265625q1.765625 0 2.71875 1.03125q0.953125 1.03125 0.953125 2.921875l0 0.796875zm-1.421875 -1.125q-0.015625 -1.15625 -0.59375 -1.78125q-0.5625 -0.640625 -1.734375 -0.640625q-1.1875 0 -1.890625 0.703125q-0.6875 0.6875 -0.78125 1.71875l5.0 0zm10.109375 4.796875q-0.734375 0.34375 -1.40625 0.546875q-0.65625 0.203125 -1.390625 0.203125q-0.953125 0 -1.75 -0.28125q-0.78125 -0.28125 -1.34375 -0.84375q-0.5625 -0.5625 -0.875 -1.421875q-0.3125 -0.859375 -0.3125 -2.015625q0 -2.140625 1.171875 -3.359375q1.171875 -1.21875 3.109375 -1.21875q0.75 0 1.46875 0.21875q0.71875 0.203125 1.328125 0.515625l0 1.625l-0.078125 0q-0.671875 -0.515625 -1.390625 -0.796875q-0.71875 -0.28125 -1.390625 -0.28125q-1.25 0 -1.984375 0.84375q-0.71875 0.828125 -0.71875 2.453125q0 1.578125 0.703125 2.4375q0.71875 0.84375 2.0 0.84375q0.4375 0 0.890625 -0.109375q0.46875 -0.125 0.84375 -0.3125q0.3125 -0.171875 0.59375 -0.34375q0.28125 -0.1875 0.453125 -0.328125l0.078125 0l0 1.625z" fill-rule="nonzero"></path><path fill="#000000" d="m259.51694 227.79414q0 2.34375 -0.765625 4.234375q-0.765625 1.875 -2.15625 3.453125l-1.7812653 0l0 -0.078125q0.59375 -0.53125 1.2031403 -1.3125q0.609375 -0.78125 1.0625 -1.734375q0.484375 -1.015625 0.765625 -2.125q0.296875 -1.109375 0.296875 -2.4375q0 -1.28125 -0.296875 -2.4375q-0.28125 -1.15625 -0.765625 -2.125q-0.484375 -0.984375 -1.0625 -1.734375q-0.57814026 -0.75 -1.2031403 -1.3125l0 -0.078125l1.7812653 0q1.390625 1.578125 2.15625 3.453125q0.765625 1.875 0.765625 4.234375z" fill-rule="nonzero"></path><path fill="#000000" fill-opacity="0.0" d="m73.81102 0l126.4252 0l0 25.952755l-126.4252 0z" fill-rule="evenodd"></path><path fill="#d96307" d="m98.315445 26.919998l0 -13.59375l1.671875 0l0 13.59375l-1.671875 0zm10.926071 -3.171875l1.71875 0.21875q-0.40625 1.5 -1.515625 2.34375q-1.09375 0.828125 -2.8125 0.828125q-2.15625 0 -3.421875 -1.328125q-1.265625 -1.328125 -1.265625 -3.734375q0 -2.484375 1.265625 -3.859375q1.28125 -1.375 3.328125 -1.375q1.984375 0 3.234375 1.34375q1.25 1.34375 1.25 3.796875q0 0.140625 -0.015625 0.4375l-7.34375 0q0.09375 1.625 0.921875 2.484375q0.828125 0.859375 2.0625 0.859375q0.90625 0 1.546875 -0.46875q0.65625 -0.484375 1.046875 -1.546875zm-5.484375 -2.703125l5.5 0q-0.109375 -1.234375 -0.625 -1.859375q-0.796875 -0.96875 -2.078125 -0.96875q-1.140625 0 -1.9375 0.78125q-0.78125 0.765625 -0.859375 2.046875zm12.766342 4.375l0.234375 1.484375q-0.703125 0.140625 -1.265625 0.140625q-0.90625 0 -1.40625 -0.28125q-0.5 -0.296875 -0.703125 -0.75q-0.203125 -0.46875 -0.203125 -1.984375l0 -5.65625l-1.234375 0l0 -1.3125l1.234375 0l0 -2.4375l1.65625 -1.0l0 3.4375l1.6875 0l0 1.3125l-1.6875 0l0 5.75q0 0.71875 0.078125 0.921875q0.09375 0.203125 0.296875 0.328125q0.203125 0.125 0.578125 0.125q0.265625 0 0.734375 -0.078125z" fill-rule="nonzero"></path><path fill="#000000" d="m129.98384 23.748123l1.71875 0.21875q-0.40625 1.5 -1.515625 2.34375q-1.09375 0.828125 -2.8125 0.828125q-2.15625 0 -3.421875 -1.328125q-1.265625 -1.328125 -1.265625 -3.734375q0 -2.484375 1.265625 -3.859375q1.28125 -1.375 3.328125 -1.375q1.984375 0 3.234375 1.34375q1.25 1.34375 1.25 3.796875q0 0.140625 -0.015625 0.4375l-7.34375 0q0.09375 1.625 0.921875 2.484375q0.828125 0.859375 2.0625 0.859375q0.90625 0 1.546875 -0.46875q0.65625 -0.484375 1.046875 -1.546875zm-5.484375 -2.703125l5.5 0q-0.109375 -1.234375 -0.625 -1.859375q-0.796875 -0.96875 -2.078125 -0.96875q-1.140625 0 -1.9375 0.78125q-0.78125 0.765625 -0.859375 2.046875zm11.844467 5.875l-3.75 -9.859375l1.765625 0l2.125 5.90625q0.34375 0.953125 0.625 1.984375q0.21875 -0.78125 0.625 -1.875l2.1875 -6.015625l1.71875 0l-3.734375 9.859375l-1.5625 0zm13.34375 -3.171875l1.71875 0.21875q-0.40625 1.5 -1.515625 2.34375q-1.09375 0.828125 -2.8125 0.828125q-2.15625 0 -3.421875 -1.328125q-1.265625 -1.328125 -1.265625 -3.734375q0 -2.484375 1.265625 -3.859375q1.28125 -1.375 3.328125 -1.375q1.984375 0 3.234375 1.34375q1.25 1.34375 1.25 3.796875q0 0.140625 -0.015625 0.4375l-7.34375 0q0.09375 1.625 0.921875 2.484375q0.828125 0.859375 2.0625 0.859375q0.90625 0 1.546875 -0.46875q0.65625 -0.484375 1.046875 -1.546875zm-5.484375 -2.703125l5.5 0q-0.109375 -1.234375 -0.625 -1.859375q-0.796875 -0.96875 -2.078125 -0.96875q-1.140625 0 -1.9375 0.78125q-0.78125 0.765625 -0.859375 2.046875zm9.110092 5.875l0 -9.859375l1.5 0l0 1.40625q1.09375 -1.625 3.140625 -1.625q0.890625 0 1.640625 0.328125q0.75 0.3125 1.109375 0.84375q0.375 0.515625 0.53125 1.21875q0.09375 0.46875 0.09375 1.625l0 6.0625l-1.671875 0l0 -6.0q0 -1.015625 -0.203125 -1.515625q-0.1875 -0.515625 -0.6875 -0.8125q-0.5 -0.296875 -1.171875 -0.296875q-1.0625 0 -1.84375 0.671875q-0.765625 0.671875 -0.765625 2.578125l0 5.375l-1.671875 0zm14.031967 -1.5l0.234375 1.484375q-0.703125 0.140625 -1.265625 0.140625q-0.90625 0 -1.40625 -0.28125q-0.5 -0.296875 -0.703125 -0.75q-0.203125 -0.46875 -0.203125 -1.984375l0 -5.65625l-1.234375 0l0 -1.3125l1.234375 0l0 -2.4375l1.65625 -1.0l0 3.4375l1.6875 0l0 1.3125l-1.6875 0l0 5.75q0 0.71875 0.078125 0.921875q0.09375 0.203125 0.296875 0.328125q0.203125 0.125 0.578125 0.125q0.265625 0 0.734375 -0.078125zm0.85517883 -1.4375l1.65625 -0.265625q0.140625 1.0 0.765625 1.53125q0.640625 0.515625 1.78125 0.515625q1.15625 0 1.703125 -0.46875q0.5625 -0.46875 0.5625 -1.09375q0 -0.5625 -0.484375 -0.890625q-0.34375 -0.21875 -1.703125 -0.5625q-1.84375 -0.46875 -2.5625 -0.796875q-0.703125 -0.34375 -1.078125 -0.9375q-0.359375 -0.609375 -0.359375 -1.328125q0 -0.65625 0.296875 -1.21875q0.3125 -0.5625 0.828125 -0.9375q0.390625 -0.28125 1.0625 -0.484375q0.671875 -0.203125 1.4375 -0.203125q1.171875 0 2.046875 0.34375q0.875 0.328125 1.28125 0.90625q0.421875 0.5625 0.578125 1.515625l-1.625 0.21875q-0.109375 -0.75 -0.65625 -1.171875q-0.53125 -0.4375 -1.5 -0.4375q-1.15625 0 -1.640625 0.390625q-0.484375 0.375 -0.484375 0.875q0 0.328125 0.203125 0.59375q0.203125 0.265625 0.640625 0.4375q0.25 0.09375 1.46875 0.4375q1.765625 0.46875 2.46875 0.765625q0.703125 0.296875 1.09375 0.875q0.40625 0.578125 0.40625 1.4375q0 0.828125 -0.484375 1.578125q-0.484375 0.734375 -1.40625 1.140625q-0.921875 0.390625 -2.078125 0.390625q-1.921875 0 -2.9375 -0.796875q-1.0 -0.796875 -1.28125 -2.359375z" fill-rule="nonzero"></path><path fill="#000000" fill-opacity="0.0" d="m203.51706 284.00262l138.80316 -56.409454" fill-rule="evenodd"></path><path stroke="#000000" stroke-width="2.0" stroke-linejoin="round" stroke-linecap="butt" d="m203.51706 284.00262l127.68613 -51.89151" fill-rule="evenodd"></path><path fill="#000000" stroke="#000000" stroke-width="2.0" stroke-linecap="butt" d="m332.44693 235.17151l7.164612 -6.477539l-9.6521 0.35676575z" fill-rule="evenodd"></path><path fill="#000000" fill-opacity="0.0" d="m200.2336 123.585304l142.99211 22.519676" fill-rule="evenodd"></path><path stroke="#b7b7b7" stroke-width="2.0" stroke-linejoin="round" stroke-linecap="butt" d="m200.2336 123.585304l131.13823 20.652824" fill-rule="evenodd"></path><path fill="#b7b7b7" stroke="#b7b7b7" stroke-width="2.0" stroke-linecap="butt" d="m330.8579 147.50137l9.479614 -1.8512421l-8.451782 -4.675247z" fill-rule="evenodd"></path></g></svg>

